<svg width="32" height="33" viewBox="0 0 32 33" fill="none" xmlns="http://www.w3.org/2000/svg">
<path d="M3.99927 13.1925H9.99927V26.1925H3.99927C3.73405 26.1925 3.4797 26.0871 3.29216 25.8996C3.10462 25.7121 2.99927 25.4577 2.99927 25.1925V14.1925C2.99927 13.9273 3.10462 13.6729 3.29216 13.4854C3.4797 13.2979 3.73405 13.1925 3.99927 13.1925V13.1925Z" stroke="#00E169" stroke-width="3" stroke-linecap="round" stroke-linejoin="round"/>
<path d="M9.99927 13.1925L14.9993 3.1925C15.5246 3.1925 16.0447 3.29597 16.53 3.49699C17.0153 3.69801 17.4563 3.99264 17.8277 4.36408C18.1991 4.73551 18.4938 5.17647 18.6948 5.66177C18.8958 6.14707 18.9993 6.66722 18.9993 7.1925V10.1925H26.7337C27.0173 10.1925 27.2976 10.2528 27.5561 10.3694C27.8146 10.486 28.0454 10.6563 28.2331 10.8689C28.4207 11.0815 28.5611 11.3316 28.6447 11.6025C28.7284 11.8735 28.7534 12.1592 28.7183 12.4406L27.2183 24.4406C27.1578 24.9243 26.9228 25.3693 26.5573 25.6919C26.1919 26.0145 25.7212 26.1925 25.2337 26.1925H9.99927" stroke="#00E169" stroke-width="3" stroke-linecap="round" stroke-linejoin="round"/>
</svg>
