<?xml version="1.0" encoding="UTF-8"?>
<svg id="Camada_1" data-name="Camada 1" xmlns="http://www.w3.org/2000/svg" width="2844" height="431" viewBox="0 0 2844 431">
  <defs>
    <style>
      .cls-1 {
        fill: #fff;
      }

      .cls-2 {
        fill: #1793ff;
      }

      .cls-3 {
        fill: none;
        stroke: #fff;
        stroke-miterlimit: 10;
      }

      .cls-4 {
        fill: #a8acaf;
      }

      .cls-5 {
        fill: #d4d4d4;
      }

      .cls-6 {
        fill: #1d6af7;
      }
    </style>
  </defs>
  <g>
    <g>
      <path class="cls-1" d="M199.48,298.73V142.51l-42.58,156.22h-47.38l-42.23-155.54v155.54H23V70.75H93.04l41.2,167.21,41.2-167.21h68.67v227.98h-44.63Z"/>
      <path class="cls-1" d="M303.51,225.94c1.37,25.41,15.79,41.89,37.77,41.89,14.42,0,27.12-7.21,30.21-18.88h46.01c-10.3,34.68-38.11,54.25-74.16,54.25-56.31,0-84.46-30.9-84.46-92.02,0-52.19,29.87-85.84,81.72-85.84s79.31,33.65,79.31,100.6h-116.39Zm70.39-28.15c-.69-25.06-17.17-37.08-34.68-37.08s-32.62,13.73-34.34,37.08h69.01Z"/>
      <path class="cls-1" d="M435.35,129.81h44.98v180.26c0,40.86-28.84,68.67-66.61,68.67-46.35,0-67.98-27.12-67.98-70.73h41.89c0,19.23,6.18,31.25,23.69,31.25s24.03-11.67,24.03-30.9V129.81Zm0-20.26v-41.54h44.98v41.54h-44.98Z"/>
      <path class="cls-1" d="M498.52,214.27c0-53.56,33.3-88.93,86.87-88.93s85.84,35.02,85.84,88.93-33.3,88.93-85.84,88.93-86.87-36.39-86.87-88.93Zm127.72,0c0-34.33-13.73-51.16-40.86-51.16s-40.86,16.82-40.86,51.16,13.73,51.5,40.86,51.5,40.86-17.17,40.86-51.5Z"/>
      <path class="cls-1" d="M687.35,298.73V129.81h41.89v20.26c14.76-22.66,31.93-24.72,50.13-24.72h5.84v45.67c-4.12-.69-8.24-1.03-12.36-1.03-27.47,0-40.86,13.73-40.86,40.86v87.9h-44.63Z"/>
      <path class="cls-1" d="M828.13,225.94c1.37,25.41,15.79,41.89,37.77,41.89,14.42,0,27.12-7.21,30.21-18.88h46.01c-10.3,34.68-38.11,54.25-74.16,54.25-56.31,0-84.46-30.9-84.46-92.02,0-52.19,29.87-85.84,81.72-85.84s79.31,33.65,79.31,100.6h-116.39Zm70.39-28.15c-.69-25.06-17.17-37.08-34.68-37.08s-32.62,13.73-34.34,37.08h69.01Z"/>
      <path class="cls-1" d="M1061.6,180.96c-2.4-16.48-11.33-22.32-31.59-22.32-16.82,0-26.44,4.12-26.44,14.08s9.27,14.08,27.47,19.23c19.23,5.49,37.42,9.27,50.47,14.42,17.85,7.21,27.81,18.88,27.81,40.86,0,35.02-25.75,55.97-73.82,55.97-51.85,0-80.69-24.38-81.37-58.71h46.01c0,15.79,13.39,25.06,35.02,25.06,15.79,0,29.87-4.81,29.87-17.51,0-12.02-12.7-15.79-27.12-19.23-28.5-6.87-44.29-11.67-56.31-19.23-15.79-9.96-21.29-23-21.29-38.11,0-28.5,19.57-50.13,71.07-50.13,48.76,0,70.73,19.23,73.13,55.62h-42.92Z"/>
    </g>
    <g>
      <path class="cls-1" d="M1812.32,220.59c-9.61,51.85-45.32,86.18-98.2,86.18-59.74,0-105.41-40.86-105.41-119.14s40.86-124.29,106.09-124.29c57,0,93.05,36.39,97.51,82.4h-47.73c-6.52-25.75-26.78-41.2-49.44-41.2-39.48,0-58.02,30.56-58.02,80.34s18.54,80.34,55.62,80.34c28.15,0,45.32-16.14,51.84-44.63h47.73Z"/>
      <path class="cls-1" d="M1822.96,298.87V129.94h41.89v20.26c14.76-22.66,31.93-24.72,50.13-24.72h5.84v45.66c-4.12-.69-8.24-1.03-12.36-1.03-27.47,0-40.86,13.73-40.86,40.86v87.9h-44.63Z"/>
      <path class="cls-1" d="M1963.73,226.08c1.37,25.41,15.79,41.89,37.77,41.89,14.42,0,27.12-7.21,30.21-18.88h46.01c-10.3,34.68-38.11,54.25-74.16,54.25-56.31,0-84.46-30.9-84.46-92.02,0-52.19,29.87-85.84,81.72-85.84s79.31,33.65,79.31,100.6h-116.4Zm70.39-28.15c-.69-25.06-17.17-37.08-34.68-37.08s-32.62,13.73-34.34,37.08h69.01Z"/>
      <path class="cls-1" d="M2212.66,298.87l-.34-20.6c-10.64,17.17-26.44,25.06-47.04,25.06-42.58,0-73.13-33.65-73.13-90.64,0-51.16,25.75-87.21,69.36-87.21,20.94,0,37.42,8.58,50.13,26.44V68.14h43.95v230.73h-42.92Zm.69-80.34c0-36.74-12.7-54.94-37.42-54.94-26.09,0-38.46,17.51-38.46,52.19,0,30.21,15.79,51.16,38.11,51.16s37.77-19.91,37.77-48.41Z"/>
      <path class="cls-1" d="M2276.17,109.69v-41.55h44.63v41.55h-44.63Zm0,189.18V129.94h44.63v168.93h-44.63Z"/>
      <path class="cls-1" d="M2436.85,187.63h41.55v48.07c0,35.71-20.6,67.64-68.33,67.64s-69.01-31.59-69.01-67.98V84.28h43.95v45.67h93.39v31.59h-93.39v69.36c0,21.29,7.55,33.65,25.75,33.65s26.09-12.02,26.09-32.96v-43.95Z"/>
      <path class="cls-1" d="M2492.81,214.41c0-53.56,33.3-88.93,86.87-88.93s85.84,35.02,85.84,88.93-33.3,88.93-85.84,88.93-86.87-36.39-86.87-88.93Zm127.73,0c0-34.33-13.73-51.16-40.86-51.16s-40.86,16.82-40.86,51.16,13.73,51.5,40.86,51.5,40.86-17.17,40.86-51.5Z"/>
      <path class="cls-1" d="M2783.27,181.1c-2.4-16.48-11.33-22.32-31.59-22.32-16.82,0-26.44,4.12-26.44,14.08s9.27,14.08,27.47,19.23c19.23,5.49,37.42,9.27,50.47,14.42,17.85,7.21,27.81,18.88,27.81,40.86,0,35.02-25.75,55.97-73.82,55.97-51.85,0-80.69-24.38-81.37-58.71h46.01c0,15.79,13.39,25.06,35.02,25.06,15.79,0,29.87-4.81,29.87-17.51,0-12.02-12.7-15.79-27.12-19.23-28.5-6.87-44.29-11.67-56.31-19.23-15.79-9.96-21.29-23-21.29-38.11,0-28.5,19.57-50.13,71.07-50.13,48.76,0,70.73,19.23,73.13,55.62h-42.92Z"/>
    </g>
  </g>
  <g>
    <path class="cls-4" d="M1361.69,372.51s.7-6.03,0-7.87"/>
    <path class="cls-5" d="M1362.67,365.01s-1.61,6.55,0,7.5"/>
  </g>
  <path class="cls-6" d="M1211.6,103.49c3.65,50.24,6.76,167.25,142.41,257.34,0,0-.01-209.8-.01-290.83-35.21-3.11-115.21,17.18-142.4,33.49Z"/>
  <path class="cls-2" d="M1353.95,361.44c32.17-13.04,153.8-102.7,144.43-256.91,0,0-88.46-34.53-144.37-34.53"/>
  <path class="cls-3" d="M1198.99,101.82s148.16-92.43,311.77,0c7.65,84.27-49.44,216.12-155.89,278.06-67.53-57.86-150.45-109.51-155.89-278.06Z"/>
  <path class="cls-6" d="M1355.05,34.12v22.25c-33.04-2.06-127.37,16.06-160.5,38.84,4.14,207.1,198.82,285.79,159.99,285.79,.6,11.93-.52,17.81-.52,30.04-164.65-97.34-181.21-251.63-185.36-326.18,38.74-23.79,113.91-54.88,186.39-50.74Z"/>
  <path class="cls-6" d="M1355.05,34.12c-1.36,9.51-.09,12.74-.09,22.25,54.97,.01,117.1,25.9,157.91,38.83,2.07,171.89-129.87,255.79-157.4,282.69-5.28,8.93-1.46,33.15-1.46,33.15,0,0,189.43-84.76,185.36-326.7-77.48-38.06-141.77-50.73-184.32-50.22Z"/>
  <path class="cls-1" d="M1362.43,218.22c1.23,.26,2.47,.46,3.72,.61,4.3,.51,9.22,1.14,13.29,1.75,5.56,.83,10.73,3.6,14.17,8.03,5.98,7.71,6.08,18.49-.47,26.8-2.95,3.74-7.15,6.26-11.73,7.54-.03,0-.04,.01-.05,.01-17.6,5.18-56.56,3.22-75.03-18.18-.6-.69-1.4-2.8-1.4-2.8,0,0-19.73,8.13-28.03,12.61,13.29,21.73,27.54,33.58,64.08,40.47v23.82h33.14l-1.04-24.85c46.6-8.28,59.07-30.23,60.57-48.35,0-.08,.01-.16,.01-.24h0c.16-12.09-3.61-24-11.11-33.49-16.09-20.35-40.89-24-61.41-25.12-9.46-.52-18.84-2.11-27.97-4.63l-1.22-.34c-15.81-4.36-17.13-18.03-10.2-28.18,14.29-19.81,57.98-18.56,77.08,7.01,7.11-3.1,21.02-9.81,28.17-13.15-17.32-28.64-53.4-33.1-53.4-33.1l.2-22.85h-33.14v22.48s-53.87,4.73-57.79,45.33c-1.16,11.99,2.94,23.86,10.7,33.08,17.95,21.31,44.95,21.04,64.13,24.78l4.72,.98Z"/>
  <path class="cls-1" d="M1353.49,70.37c50.06,2.18,108.21,21.23,144.88,34.16,.66,122.91-72.39,220.58-143.94,256.81-56.65-37.63-137.66-115.57-142.61-257.49,20.2-15.45,111.71-35.26,141.67-33.48,0-5.18,1.04-9.32,1.04-14.5-42.46-2.07-133.12,19.6-160.13,39.26,2.16,177.08,131.66,268.29,160.13,284.86,23.3-14.5,158.76-87.58,158.76-284.86-36.15-11.38-79.79-30.63-159.79-39.63"/>
</svg>