<?xml version="1.0" encoding="UTF-8"?>
<svg id="Camada_2" xmlns="http://www.w3.org/2000/svg" viewBox="0 0 1402.56 311.17">
  <defs>
    <style>
      .cls-1 {
        fill: #0758ce;
      }

      .cls-2 {
        fill: #fff;
        stroke: #fff;
        stroke-miterlimit: 10;
        stroke-width: 10px;
      }
    </style>
  </defs>
  <g id="Camada_1-2" data-name="Camada_1">
    <g>
      <path class="cls-2" d="M15.27,133.49c0-30.63,18.77-46.04,43.27-46.04,17.78,0,31.61,8.5,38.13,24.11,6.52-15.61,20.35-24.11,38.13-24.11,24.5,0,43.27,15.41,43.27,46.04v85.75h-14.23v-85.75c0-21.93-12.84-33-30.03-33s-30.03,11.66-30.03,33v85.75h-14.23v-85.75c0-21.34-12.65-33-30.03-33s-30.03,11.06-30.03,33v85.75h-14.23v-85.75Z"/>
      <path class="cls-2" d="M196.46,170.44c0-29.64,21.73-51.37,52.56-51.37s52.56,21.73,52.56,51.37-21.73,51.37-52.56,51.37-52.56-21.73-52.56-51.37ZM288.14,170.44c0-22.52-15.81-39.12-39.12-39.12s-39.12,16.6-39.12,39.12,15.81,39.12,39.12,39.12,39.12-16.6,39.12-39.12Z"/>
      <path class="cls-2" d="M319.36,160.76c0-28.06,16.79-41.69,41.1-41.69s40.9,13.63,40.9,41.89v1.19h-13.04v-1.38c0-20.35-11.26-29.44-27.86-29.44s-27.86,9.09-27.86,29.44v58.49h-13.24v-58.49Z"/>
      <path class="cls-2" d="M416.76,172.61v-50.98h13.24v50.98c0,23.91,13.83,36.95,34.97,36.95s34.97-13.04,34.97-36.95v-50.98h13.24v50.98c0,32.4-19.36,49.2-48.21,49.2s-48.21-16.79-48.21-49.2Z"/>
      <path class="cls-2" d="M969.59,90.02h15.81l43.47,112.82,43.47-112.82h15.41l-51.57,129.22h-15.21l-51.37-129.22Z"/>
      <path class="cls-2" d="M1104.94,92.59c0-5.73,4.35-10.08,10.08-10.08s10.08,4.35,10.08,10.08-4.35,10.08-10.08,10.08-10.08-4.35-10.08-10.08ZM1108.5,121.64h13.24v97.61h-13.24v-97.61Z"/>
      <path class="cls-2" d="M1147.02,160.76c0-28.06,16.79-41.69,41.1-41.69s40.9,13.63,40.9,41.89v1.19h-13.04v-1.38c0-20.35-11.26-29.44-27.86-29.44s-27.86,9.09-27.86,29.44v58.49h-13.24v-58.49Z"/>
      <path class="cls-2" d="M1240.48,171.03c0-30.43,21.73-51.97,52.56-51.97s52.36,21.14,52.36,51.97v48.21h-12.25v-24.11c-6.92,17.39-23.12,26.67-42.08,26.67-27.46,0-50.58-19.56-50.58-50.78ZM1332.16,170.44c0-22.52-15.81-39.12-39.12-39.12s-39.12,16.6-39.12,39.12,15.81,39.12,39.12,39.12,39.12-16.6,39.12-39.12Z"/>
      <path class="cls-2" d="M1370.88,78.96h13.24v140.29h-13.24V78.96Z"/>
    </g>
    <g>
      <path class="cls-1" d="M889.6,211.04c7.35-14.32,9.8-29.94,10.79-45.62,2.18-34.49-6.63-66.24-25.55-95.26-3.31-5.07-5.29-5.1-9.49-.87-37.75,38-75.8,75.72-113.51,113.77-4.48,4.52-6.68,4.49-11.16-.03-37.68-38.04-75.71-75.75-113.48-113.71-4.04-4.06-5.94-4.4-9.43.83-34.32,51.31-34.41,118.77-.09,170.47,3.1,4.67,5.31,6.15,9.48,1.16,3.66-4.39,8.12-8.1,12.07-12.26,2.53-2.66,4.25-2.96,6.68.37,7.23,9.9,15.66,18.72,25.75,25.76,3.83,2.67,2.86,4.55.14,7.24-15.31,15.13-30.68,30.2-45.64,45.67-4.18,4.32-6.67,2.5-10.03-.4-32.49-28.02-55.24-62.54-64.55-104.37-17.54-78.81,4.05-145.84,63.91-200.43,5.08-4.63,7.76-3.74,12.1.63,37.42,37.66,75.15,75.01,112.48,112.76,4.91,4.97,7.46,4.97,12.32.07,37.71-38.04,75.77-75.74,113.53-113.72,3.85-3.87,6.09-4.23,10.37-.46,49.67,43.77,73.84,98.76,70.29,164.72-3.07,56.98-27.61,104.15-70.87,141.52-3.43,2.96-5.59,3.18-8.89-.18-15.27-15.5-30.7-30.85-46.27-46.05-3.25-3.18-2.55-4.8.67-7.16,9.71-7.1,18.17-15.56,25.35-25.19,2.68-3.59,4.59-3.13,7.29-.29,4.45,4.68,9.13,9.13,13.65,13.74,2.1,2.14,3.72,2.51,5.62-.39,6.68-10.19,13.34-20.37,16.48-32.36v.02Z"/>
      <path class="cls-1" d="M871.26,160.41c1.85,6.61-1.95,11.63-7.28,16.9-36.21,35.8-72.09,71.93-108.14,107.9-7.53,7.51-11.56,7.34-19.14-.23-36.88-36.83-73.72-73.7-110.72-110.41-3.54-3.51-5.07-7.05-4.83-11.99.68-14.18,2.96-27.98,7.85-41.36,1.92-5.25,3.59-5.57,7.6-1.55,34.59,34.72,69.46,69.17,103.94,103.99,4.81,4.86,7.28,4.34,11.77-.2,34.17-34.47,68.6-68.68,102.96-102.95,5.73-5.71,5.87-5.68,8.57,1.67,4.39,11.97,7.21,24.26,7.42,38.22Z"/>
    </g>
  </g>
</svg>