<svg width="10" height="10" viewBox="0 0 10 10" fill="none" xmlns="http://www.w3.org/2000/svg">
<path d="M2.38002 0.53832C1.96222 0.120527 1.28485 0.120527 0.867056 0.53832C0.449263 0.956113 0.449263 1.63349 0.867056 2.05128L3.48692 4.67114L0.867186 7.29088C0.449393 7.70867 0.449392 8.38605 0.867185 8.80384C1.28498 9.22163 1.96236 9.22163 2.38015 8.80384L4.99988 6.18411L7.61961 8.80384C8.0374 9.22163 8.71478 9.22163 9.13257 8.80384C9.55037 8.38605 9.55037 7.70867 9.13257 7.29088L6.51284 4.67114L9.1327 2.05128C9.5505 1.63349 9.5505 0.956113 9.1327 0.53832C8.71491 0.120527 8.03753 0.120527 7.61974 0.53832L4.99988 3.15818L2.38002 0.53832Z" fill="#DB2B28"/>
</svg>
