<svg width="32" height="33" viewBox="0 0 32 33" fill="none" xmlns="http://www.w3.org/2000/svg">
<path d="M3.99927 6.1925H9.99927V19.1925H3.99927C3.73405 19.1925 3.4797 19.0871 3.29216 18.8996C3.10462 18.7121 2.99927 18.4577 2.99927 18.1925V7.1925C2.99927 6.92729 3.10462 6.67293 3.29216 6.4854C3.4797 6.29786 3.73405 6.1925 3.99927 6.1925V6.1925Z" stroke="#DB2B28" stroke-width="3" stroke-linecap="round" stroke-linejoin="round"/>
<path d="M9.99927 19.1925L14.9993 29.1925C15.5246 29.1925 16.0447 29.089 16.53 28.888C17.0153 28.687 17.4563 28.3924 17.8277 28.0209C18.1991 27.6495 18.4938 27.2085 18.6948 26.7232C18.8958 26.2379 18.9993 25.7178 18.9993 25.1925V22.1925H26.7337C27.0173 22.1925 27.2976 22.1322 27.5561 22.0156C27.8146 21.899 28.0454 21.7287 28.2331 21.5161C28.4207 21.3035 28.5611 21.0534 28.6447 20.7825C28.7284 20.5115 28.7534 20.2258 28.7183 19.9444L27.2183 7.94444C27.1578 7.46073 26.9228 7.01576 26.5573 6.69315C26.1919 6.37054 25.7212 6.19251 25.2337 6.1925H9.99927" stroke="#DB2B28" stroke-width="3" stroke-linecap="round" stroke-linejoin="round"/>
</svg>
